<svg width="303" height="303" viewBox="0 0 303 303" fill="none" xmlns="http://www.w3.org/2000/svg">
<g clip-path="url(#clip0_1_8)">
<rect width="303" height="303" fill="#F0C7FF"/>
<g filter="url(#filter0_f_1_8)">
<ellipse cx="270" cy="241" rx="141" ry="120" fill="#CAE1F1"/>
</g>
<g filter="url(#filter1_f_1_8)">
<path d="M348.419 69.0794C362.521 86.7964 337.309 100.702 297.985 132C243.5 175.366 195.587 201.217 181.486 183.5C167.384 165.783 212.363 124.968 251.686 93.6697C291.009 62.3719 334.318 51.3624 348.419 69.0794Z" fill="#C026D3"/>
</g>
<g filter="url(#filter2_f_1_8)">
<path d="M304 233.569C304 269.384 246.226 325.655 217.158 325.655C188.09 325.655 134 314.131 134 278.315C134 242.499 198.342 243.432 230.5 211.655C259.568 211.655 304 197.753 304 233.569Z" fill="#FF9FD3"/>
</g>
<g opacity="0.7" filter="url(#filter3_f_1_8)">
<path d="M324.426 63.1923C332.423 73.2396 308.511 88.7781 269.187 120.076C214.702 163.442 169.38 192.548 161.383 182.501C153.386 172.454 199.423 132.968 238.746 101.67C278.069 70.3719 316.429 53.1449 324.426 63.1923Z" fill="#701EB1"/>
</g>
<g filter="url(#filter4_f_1_8)">
<path d="M188.19 244.218C176.024 284.678 97.075 389.641 35.1943 371.035C-26.6863 352.429 -106.749 244.035 -94.5834 203.575C-82.418 163.114 -19.8584 230.742 42.0222 249.348C103.903 267.954 200.355 203.757 188.19 244.218Z" fill="#C026D3" fill-opacity="0.7"/>
<path d="M175.84 244.218C163.675 284.678 84.7253 389.641 22.8446 371.035C-39.036 352.429 -119.098 244.035 -106.933 203.575C-94.7676 163.114 -32.2081 230.742 29.6726 249.348C91.5532 267.954 188.006 203.757 175.84 244.218Z" fill="#6942FF"/>
</g>
<g filter="url(#filter5_f_1_8)">
<path d="M118.19 270.218C106.024 310.678 27.075 415.641 -34.8057 397.035C-96.6864 378.429 -176.749 270.035 -164.583 229.575C-152.418 189.114 -89.8584 256.742 -27.9778 275.348C33.9029 293.954 130.355 229.757 118.19 270.218Z" fill="#7209B7" fill-opacity="0.9"/>
</g>
<g filter="url(#filter6_f_1_8)">
<path d="M268.217 226.754C268.217 262.569 210.443 318.84 181.375 318.84C152.308 318.84 98.2174 307.316 98.2174 271.5C98.2174 235.684 162.559 236.617 194.717 204.84C223.785 204.84 268.217 190.938 268.217 226.754Z" fill="#FF84F9" style="mix-blend-mode:overlay"/>
</g>
<g filter="url(#filter7_f_1_8)">
<path d="M321.5 13.9961C111.5 105.496 143.142 209.496 54.5 209.496C-34.1417 209.496 -32.5 110 -54 37C-54 -26.7889 4.85833 -64 93.5 -64C182.142 -64 321.5 -49.7928 321.5 13.9961Z" fill="#CAE1F1"/>
</g>
<g filter="url(#filter8_f_1_8)">
<path d="M297.5 -7.00391C87.5 84.4961 119.142 188.496 30.5 188.496C-58.1417 188.496 -56.5 89 -78 16C-78 -47.7889 -19.1417 -85 69.5 -85C158.142 -85 297.5 -70.7928 297.5 -7.00391Z" fill="#FF84F9"/>
</g>
<g filter="url(#filter9_f_1_8)">
<path d="M273 -3.00003C231.887 36.3258 191.776 64.8774 139.131 101.51C84.3042 101.51 114.062 73.5318 114.062 39.0193C114.062 4.50687 118.9 -65.4904 173.727 -65.4904C228.554 -65.4904 273 -37.5125 273 -3.00003Z" fill="#3B82F6"/>
</g>
<g filter="url(#filter10_f_1_8)">
<path d="M265.001 -18C224.001 18.5 184 45 131.5 79C76.8239 79 106.5 53.0325 106.5 21C106.5 -11.0325 111.324 -76 166 -76C220.677 -76 265.001 -50.0325 265.001 -18Z" fill="#A72AC9"/>
</g>
<g filter="url(#filter11_f_1_8)">
<path d="M50.4142 -9.38601C46.3625 92.9982 45.5687 107.452 117.336 174.857C91.5792 227.378 41.0175 135.09 1.61803 115.768C-37.7814 96.4456 -93.3185 103.247 -67.5617 50.7258C-41.8049 -1.79493 11.0147 -28.708 50.4142 -9.38601Z" fill="#6942FF"/>
</g>
<g filter="url(#filter12_f_1_8)">
<path d="M40.7578 -35.1216C16.4559 91.8199 12.8211 109.785 65.3564 178.402C31.0885 248.277 3.07741 144.746 -29.3168 128.86C-61.711 112.973 -114.212 132.51 -79.9445 62.6345C-45.6767 -7.24113 8.36364 -51.0081 40.7578 -35.1216Z" fill="#A72AC9"/>
</g>
<g filter="url(#filter13_f_1_8)">
<path d="M152 143.008C152 172.175 97.624 218 70.2663 218C42.9085 218 -8 208.615 -8 179.448C-8 150.281 52.5573 151.04 82.8235 125.162C110.181 125.162 152 113.841 152 143.008Z" fill="#FF9FD3" style="mix-blend-mode:soft-light"/>
</g>
<g filter="url(#filter14_f_1_8)">
<path d="M164.5 95.5C164.5 127.737 94.2255 226 65.1579 226C36.0903 226 -15 135.737 -15 103.5C-15 71.2628 44.3421 189.602 76.5 161C105.568 161 164.5 63.2629 164.5 95.5Z" fill="#FF84F9" style="mix-blend-mode:color-dodge"/>
</g>
</g>
<defs>
<filter id="filter0_f_1_8" x="29" y="21" width="482" height="440" filterUnits="userSpaceOnUse" color-interpolation-filters="sRGB">
<feFlood flood-opacity="0" result="BackgroundImageFix"/>
<feBlend mode="normal" in="SourceGraphic" in2="BackgroundImageFix" result="shape"/>
<feGaussianBlur stdDeviation="50" result="effect1_foregroundBlur_1_8"/>
</filter>
<filter id="filter1_f_1_8" x="128.839" y="10.6183" width="273.534" height="228.527" filterUnits="userSpaceOnUse" color-interpolation-filters="sRGB">
<feFlood flood-opacity="0" result="BackgroundImageFix"/>
<feBlend mode="normal" in="SourceGraphic" in2="BackgroundImageFix" result="shape"/>
<feGaussianBlur stdDeviation="25" result="effect1_foregroundBlur_1_8"/>
</filter>
<filter id="filter2_f_1_8" x="64" y="139" width="310" height="256.655" filterUnits="userSpaceOnUse" color-interpolation-filters="sRGB">
<feFlood flood-opacity="0" result="BackgroundImageFix"/>
<feBlend mode="normal" in="SourceGraphic" in2="BackgroundImageFix" result="shape"/>
<feGaussianBlur stdDeviation="35" result="effect1_foregroundBlur_1_8"/>
</filter>
<filter id="filter3_f_1_8" x="110.469" y="10.3278" width="265.495" height="224.163" filterUnits="userSpaceOnUse" color-interpolation-filters="sRGB">
<feFlood flood-opacity="0" result="BackgroundImageFix"/>
<feBlend mode="normal" in="SourceGraphic" in2="BackgroundImageFix" result="shape"/>
<feGaussianBlur stdDeviation="25" result="effect1_foregroundBlur_1_8"/>
</filter>
<filter id="filter4_f_1_8" x="-168.17" y="130.89" width="417.409" height="302.335" filterUnits="userSpaceOnUse" color-interpolation-filters="sRGB">
<feFlood flood-opacity="0" result="BackgroundImageFix"/>
<feBlend mode="normal" in="SourceGraphic" in2="BackgroundImageFix" result="shape"/>
<feGaussianBlur stdDeviation="30" result="effect1_foregroundBlur_1_8"/>
</filter>
<filter id="filter5_f_1_8" x="-225.821" y="156.89" width="405.059" height="302.335" filterUnits="userSpaceOnUse" color-interpolation-filters="sRGB">
<feFlood flood-opacity="0" result="BackgroundImageFix"/>
<feBlend mode="normal" in="SourceGraphic" in2="BackgroundImageFix" result="shape"/>
<feGaussianBlur stdDeviation="30" result="effect1_foregroundBlur_1_8"/>
</filter>
<filter id="filter6_f_1_8" x="28.2174" y="132.185" width="310" height="256.655" filterUnits="userSpaceOnUse" color-interpolation-filters="sRGB">
<feFlood flood-opacity="0" result="BackgroundImageFix"/>
<feBlend mode="normal" in="SourceGraphic" in2="BackgroundImageFix" result="shape"/>
<feGaussianBlur stdDeviation="35" result="effect1_foregroundBlur_1_8"/>
</filter>
<filter id="filter7_f_1_8" x="-154" y="-164" width="575.5" height="473.496" filterUnits="userSpaceOnUse" color-interpolation-filters="sRGB">
<feFlood flood-opacity="0" result="BackgroundImageFix"/>
<feBlend mode="normal" in="SourceGraphic" in2="BackgroundImageFix" result="shape"/>
<feGaussianBlur stdDeviation="50" result="effect1_foregroundBlur_1_8"/>
</filter>
<filter id="filter8_f_1_8" x="-178" y="-185" width="575.5" height="473.496" filterUnits="userSpaceOnUse" color-interpolation-filters="sRGB">
<feFlood flood-opacity="0" result="BackgroundImageFix"/>
<feBlend mode="normal" in="SourceGraphic" in2="BackgroundImageFix" result="shape"/>
<feGaussianBlur stdDeviation="50" result="effect1_foregroundBlur_1_8"/>
</filter>
<filter id="filter9_f_1_8" x="6" y="-165.49" width="367" height="367" filterUnits="userSpaceOnUse" color-interpolation-filters="sRGB">
<feFlood flood-opacity="0" result="BackgroundImageFix"/>
<feBlend mode="normal" in="SourceGraphic" in2="BackgroundImageFix" result="shape"/>
<feGaussianBlur stdDeviation="50" result="effect1_foregroundBlur_1_8"/>
</filter>
<filter id="filter10_f_1_8" x="-1.53992" y="-176" width="366.54" height="355" filterUnits="userSpaceOnUse" color-interpolation-filters="sRGB">
<feFlood flood-opacity="0" result="BackgroundImageFix"/>
<feBlend mode="normal" in="SourceGraphic" in2="BackgroundImageFix" result="shape"/>
<feGaussianBlur stdDeviation="50" result="effect1_foregroundBlur_1_8"/>
</filter>
<filter id="filter11_f_1_8" x="-174.138" y="-115.645" width="391.474" height="406.461" filterUnits="userSpaceOnUse" color-interpolation-filters="sRGB">
<feFlood flood-opacity="0" result="BackgroundImageFix"/>
<feBlend mode="normal" in="SourceGraphic" in2="BackgroundImageFix" result="shape"/>
<feGaussianBlur stdDeviation="50" result="effect1_foregroundBlur_1_8"/>
</filter>
<filter id="filter12_f_1_8" x="-161.119" y="-108.379" width="296.476" height="380.754" filterUnits="userSpaceOnUse" color-interpolation-filters="sRGB">
<feFlood flood-opacity="0" result="BackgroundImageFix"/>
<feBlend mode="normal" in="SourceGraphic" in2="BackgroundImageFix" result="shape"/>
<feGaussianBlur stdDeviation="35" result="effect1_foregroundBlur_1_8"/>
</filter>
<filter id="filter13_f_1_8" x="-78" y="53" width="300" height="235" filterUnits="userSpaceOnUse" color-interpolation-filters="sRGB">
<feFlood flood-opacity="0" result="BackgroundImageFix"/>
<feBlend mode="normal" in="SourceGraphic" in2="BackgroundImageFix" result="shape"/>
<feGaussianBlur stdDeviation="35" result="effect1_foregroundBlur_1_8"/>
</filter>
<filter id="filter14_f_1_8" x="-85" y="18.9774" width="319.5" height="277.023" filterUnits="userSpaceOnUse" color-interpolation-filters="sRGB">
<feFlood flood-opacity="0" result="BackgroundImageFix"/>
<feBlend mode="normal" in="SourceGraphic" in2="BackgroundImageFix" result="shape"/>
<feGaussianBlur stdDeviation="35" result="effect1_foregroundBlur_1_8"/>
</filter>
<clipPath id="clip0_1_8">
<rect width="303" height="303" fill="white"/>
</clipPath>
</defs>
</svg>
