<svg width="303" height="303" viewBox="0 0 303 303" fill="none" xmlns="http://www.w3.org/2000/svg">
<g clip-path="url(#clip0_10_60)">
<rect width="303" height="303" fill="#F8A749"/>
<g filter="url(#filter0_f_10_60)">
<path d="M313.398 242.658C314.028 323.371 265.948 372.671 181.706 373.329C435.695 94.6593 -96.2066 350.732 -128.562 99.9556C-160.918 -150.821 -39.7078 211.244 159.725 97.7046C359.157 -15.8347 312.768 161.945 313.398 242.658Z" fill="#F72585"/>
</g>
<g filter="url(#filter1_f_10_60)">
<path d="M498 76.5C498 236.386 369.149 366 210.203 366C321.825 151.383 56.7314 267.615 -41.9901 76.5C-140.712 -114.615 51.2571 -213 210.203 -213C369.149 -213 498 -83.3864 498 76.5Z" fill="#FBDB24"/>
</g>
<g filter="url(#filter2_f_10_60)">
<path d="M463 100.5C463 238.847 383.792 375.5 254 375.5C345.148 189.795 102.67 265.869 22.0557 100.5C-58.5582 -64.8691 98.1994 -150 227.991 -150C357.783 -150 463 -37.8473 463 100.5Z" fill="#2DF5F4"/>
<path d="M99.4732 213.262C62.9976 187.365 39.7241 148.678 20.5979 112.265C20.1766 111.461 19.7552 110.654 19.3334 109.843C18.2354 107.733 17.1612 105.585 16.112 103.397C-4.99164 60.5151 -16.2473 6.64195 4.76643 -39.5497C26.4789 -88.4266 73.7434 -118.896 121.35 -135.412C155.689 -147.259 191.903 -152.942 227.991 -152.579C242.7 -152.406 257.372 -150.805 271.739 -147.784C321.51 -137.46 366.907 -109.54 399.876 -71.4006C422.368 -45.5292 439.407 -15.025 449.965 17.4818C454.607 31.7523 458.014 46.3929 460.175 61.2179C461.785 72.2566 462.708 83.4747 462.94 94.6232C462.973 96.1784 462.989 97.6723 462.995 98.7753C463.001 99.8782 463 100.502 463 100.5C463 100.498 463.001 99.8699 462.992 98.7632C462.984 97.6571 462.964 96.1605 462.928 94.6054C462.668 83.3624 461.691 72.0572 460.003 60.938C458.125 48.5593 455.36 36.3192 451.728 24.3591C451.227 22.4486 450.51 19.8296 448.913 15.0332C448.096 12.5777 446.822 9.01312 445.813 6.4303C444.91 4.10928 444.186 2.37927 443.481 0.733383C442.743 -0.984329 442.029 -2.60582 441.107 -4.68703C439.546 -8.2085 437.945 -11.5412 436.195 -14.9722C435.558 -16.2219 434.899 -17.4869 434.209 -18.7837C428.723 -29.3936 422.492 -39.6009 415.569 -49.2989C412.911 -53.0731 410.372 -56.4518 408.144 -59.2694C406.143 -61.8002 404.242 -64.0579 402.308 -66.2617C401.113 -67.6593 399.893 -69.0541 398.663 -70.4281C390.731 -79.2933 382.139 -87.5848 372.985 -95.1727C365.893 -101.142 358.176 -107.119 347.504 -113.897C342.898 -116.81 338.265 -119.538 333.727 -122.012C327.026 -125.669 320.531 -128.767 314.719 -131.17C310.83 -132.78 306.72 -134.423 302.574 -135.937C297.003 -137.973 291.383 -139.767 286.164 -141.043C282.9 -141.841 279.872 -142.477 277.056 -143.015C272.574 -143.869 268.665 -144.468 265.103 -145.048C258.452 -146.129 252.582 -146.678 247.473 -146.999C241.282 -147.386 236.11 -147.456 231.548 -147.615C230.856 -147.639 230.063 -147.667 229.169 -147.692C228.795 -147.703 228.402 -147.713 227.991 -147.723C223.286 -147.823 216.064 -147.892 206.155 -147.013C202.299 -146.668 198.747 -146.202 195.235 -145.682C190.115 -144.923 185.225 -144.069 179.92 -143.278C179.128 -143.16 178.299 -143.07 177.544 -142.986C176.583 -142.879 175.744 -142.781 175.259 -142.65C173.839 -142.265 171.576 -141.702 169.13 -141.049C167.332 -140.571 165.434 -140.045 163.694 -139.528C150.213 -136.475 136.945 -132.533 124.051 -127.646C118.169 -125.416 112.316 -122.967 106.605 -120.325C103.572 -119.19 100.506 -117.956 97.3377 -116.536C93.1501 -114.651 87.9319 -111.988 81.3407 -108.11C76.5406 -105.278 70.9925 -101.779 64.824 -97.4008C53.3301 -89.337 42.9833 -79.1765 37.1646 -72.0854C35.9201 -70.5944 34.7025 -69.0766 33.4386 -67.4276C28.7745 -61.0834 22.5555 -53.2037 15.3118 -36.1315C8.64875 -19.8999 6.47225 -5.04454 5.89611 6.0974C5.60492 11.7127 5.71407 16.5986 5.91513 20.1327C6.25773 26.3883 7.1127 33.8465 8.62349 41.5412C10.8595 53.2171 14.7238 64.9419 17.2104 71.3074C18.0792 73.5594 19.0467 75.9369 20.1584 78.5271C22.5147 84.0025 25.0849 89.5099 29.0164 97.1068C30.0059 99.0085 31.0647 100.973 32.2048 103.002C32.6365 103.77 33.0849 104.545 33.5508 105.326C40.4559 116.634 46.1274 122.699 52.026 128.881C54.4529 131.355 56.3279 133.564 58.4064 135.982C61.3433 139.35 64.2946 142.815 69.6393 146.326C70.8857 147.134 72.2751 147.92 73.741 148.703C76.4343 150.149 79.3773 151.556 82.1709 153.34C83.1392 153.959 83.904 154.606 84.6533 155.243C85.4778 155.942 86.2859 156.629 87.3423 157.221C91.2622 159.413 95.2872 161.407 98.8268 163.051C103.384 165.17 107.32 166.857 109.598 168.098C113.658 170.316 118.579 172.044 123.551 173.669C127.332 174.908 131.22 176.146 134.786 177.663C139.738 179.773 145.833 182.124 152.406 184.659C159.368 187.351 166.899 190.396 174.544 193.776C180.261 196.31 184.599 199.523 190.414 203.731C194.017 206.351 198.029 209.3 203.277 212.871C206.221 214.88 208.867 216.038 211.429 217.241C213.754 218.33 215.872 219.393 217.825 220.918C219.516 222.251 220.488 223.621 221.341 224.858C222.302 226.244 223.211 227.504 225.144 228.674C226.182 229.303 227.467 229.86 229.083 230.62C229.724 230.921 230.404 231.249 231.114 231.608C231.033 231.675 230.983 231.751 230.951 231.812C230.724 232.249 232.55 233.847 234.286 235.399C234.981 236.019 235.666 236.634 236.21 237.162C238.233 239.105 242.507 242.369 245.503 244.863C246.838 245.955 247.976 247.067 249.256 248.354C250.393 249.5 251.646 250.784 253.236 252.388C254.18 253.336 254.845 254.117 255.388 254.763C255.781 255.23 256.111 255.629 256.434 255.977C256.714 256.279 257.001 256.455 257.321 256.656C257.552 256.8 257.802 256.959 258.078 257.187C258.738 257.73 259.492 258.523 259.97 259.124C260.189 259.4 260.355 259.639 260.519 259.876C260.71 260.152 260.898 260.427 261.18 260.782C262.476 262.41 263.781 263.927 265.07 265.558C266.478 267.338 267.909 269.307 269.209 271.648C269.486 272.147 269.759 272.678 270.022 273.213C270.148 273.469 270.271 273.726 270.391 273.982C270.779 274.806 271.141 275.624 271.453 276.291C272.73 279.019 273.942 281.611 274.922 284.115C275.563 285.752 276.081 287.265 276.463 288.755C277.15 291.475 277.58 292.976 277.906 294.086C278.075 294.681 278.194 295.092 278.276 295.57C278.327 296.006 278.374 296.45 278.416 296.887C278.446 297.289 278.474 297.706 278.515 298.097C278.518 298.127 278.522 298.156 278.525 298.185C278.707 300.656 278.748 303.151 278.676 305.685C278.527 310.72 277.81 316.7 277.007 321.765C276.826 322.928 276.68 324.137 276.507 325.384C276.295 326.911 276.043 328.5 275.646 330.122C274.764 333.703 273.662 337.15 272.389 340.777C270.358 346.557 268.58 350.795 266.779 355.758C266.204 357.337 265.636 358.956 265.074 360.516C264.79 361.315 264.498 362.123 264.19 362.94C264.181 362.736 264.143 362.612 264.107 362.497C264.032 362.26 263.97 362.055 264.19 361.249C264.686 359.41 265.326 356.821 264.936 357.01C264.837 357.049 264.779 356.961 264.722 356.869C264.578 356.639 264.441 356.398 263.586 358.201C262.946 359.572 261.664 362.18 260.958 364.162C260.81 364.582 260.764 364.859 260.711 365.167C260.614 365.722 260.505 366.377 259.706 368.196C259.571 368.502 259.422 368.836 259.267 369.181C258.647 370.557 257.924 372.121 257.74 372.753C257.53 373.48 257.73 373.399 257.965 373.305C258.269 373.183 258.64 373.032 258.208 374.626C258.121 374.942 257.867 375.505 257.672 375.931C257.535 376.231 257.43 376.462 257.435 376.493C257.442 376.528 257.529 376.453 257.64 376.357C257.97 376.073 258.513 375.609 257.743 377.337L254 371.33C254.321 371.317 254.721 371.311 255.215 371.312C256.077 371.313 257.06 371.328 257.94 371.334C259.237 371.344 260.308 371.335 260.45 371.276C260.503 371.253 260.54 371.23 260.571 371.205C261.597 371.187 262.62 371.16 263.64 371.124C264.942 371.136 266.8 371.039 269.117 370.861C269.678 370.818 270.269 370.77 270.881 370.718C272.906 370.561 274.918 370.369 276.917 370.142C278.52 369.977 280.24 369.79 282.04 369.586C285.652 369.174 288.762 368.817 291.859 368.372C293.156 368.185 294.437 367.985 295.73 367.757C295.236 367.886 294.79 368.002 294.448 368.098C292.106 368.751 291.19 369.158 290.349 369.542C289.79 369.796 289.251 370.036 288.353 370.296C286.709 370.767 286.907 370.906 287.056 371.013C287.133 371.068 287.193 371.114 286.975 371.189C286.799 371.249 286.384 371.339 285.954 371.43C285.58 371.51 285.192 371.59 284.947 371.655C281.959 372.432 282.89 372.427 284.262 372.421C285.017 372.416 285.898 372.401 286.327 372.519C286.701 372.656 286.602 372.742 285.018 373.111C286.282 372.989 287.543 372.852 288.8 372.7C289.281 372.595 289.645 372.456 290.145 372.244C291.042 371.87 294.049 371.141 296.365 370.502C297.439 370.209 298.368 369.943 298.888 369.776C301.646 368.879 300.784 368.896 300.015 368.922C299.596 368.934 299.21 368.941 299.474 368.798C299.586 368.736 299.407 368.754 299.226 368.77C299.086 368.783 298.942 368.796 298.93 368.774C298.846 368.61 300.462 368.047 301.96 367.492C302.817 367.177 303.629 366.868 304.067 366.664C304.2 366.601 304.305 366.547 304.403 366.496C304.546 366.421 304.685 366.348 304.909 366.254C305.419 366.039 306.491 365.67 307.657 365.25C308.255 365.035 308.878 364.807 309.464 364.584C310.222 364.294 310.476 364.134 310.746 363.966C310.937 363.847 311.137 363.724 311.521 363.545C312.217 363.222 313.659 362.681 314.986 362.157C315.564 361.929 316.122 361.706 316.589 361.511C316.78 361.432 316.867 361.385 316.882 361.363C319.044 360.47 321.086 359.572 323.066 358.659C332.931 354.025 341.238 349.502 352.988 341.692C355.199 340.204 357.535 338.516 359.827 336.756C367.248 331.216 374.306 325.094 380.896 318.573C382.278 317.352 383.934 315.794 385.802 313.907C389.322 310.346 392.769 306.478 396.631 301.771C399.504 298.26 402.559 294.344 406.025 289.587C411.787 281.662 417.301 273.111 422.804 263.145C428.325 253.212 433.809 241.384 437.275 232.855C439.183 228.212 441.116 223.297 442.802 218.681C445.192 212.158 447.071 206.28 448.086 202.605C448.411 201.43 448.697 200.306 448.974 199.202C449.171 198.416 449.364 197.641 449.556 196.882C450.128 194.878 450.682 192.862 451.219 190.84C452.21 187.265 453.625 181.684 454.759 176.217C455.22 174.118 455.662 172.01 456.07 169.969C456.963 165.508 457.75 161.144 458.463 156.715C458.696 155.269 458.922 153.806 459.14 152.338C459.142 152.324 459.144 152.31 459.146 152.296C459.583 149.348 459.985 146.373 460.345 143.437C460.499 142.179 460.647 140.921 460.788 139.66C461.145 136.465 461.461 133.242 461.73 130.066C461.872 128.385 462.004 126.683 462.124 124.986C462.317 122.228 462.48 119.446 462.61 116.674C462.82 112.19 462.945 107.734 462.986 103.259C462.992 102.527 462.996 101.824 462.998 101.307C463 100.791 463 100.5 463 100.5C463 100.501 463 100.795 462.999 101.313C462.998 101.831 462.995 102.534 462.99 103.265C462.956 107.743 462.842 112.205 462.648 116.694C462.527 119.467 462.375 122.249 462.194 125.008C462.082 126.708 461.959 128.409 461.825 130.091C461.573 133.27 461.275 136.501 460.938 139.701C460.805 140.962 460.666 142.223 460.521 143.482C460.18 146.429 459.798 149.418 459.384 152.379C459.381 152.397 459.379 152.415 459.376 152.433C459.171 153.893 458.958 155.349 458.739 156.788C458.063 161.228 457.316 165.607 456.466 170.082C456.028 172.392 455.549 174.791 455.049 177.164C454.77 178.491 454.484 179.814 454.196 181.11C454.039 181.819 453.877 182.536 453.712 183.257C449.931 199.791 445.03 215.959 438.842 231.812C432.675 247.602 425.254 262.959 416.501 277.492C407.727 292.057 397.608 305.814 386.01 318.317C352.856 354.841 304.568 378.991 254 379.3L247.957 379.385L250.589 373.826C264.783 342.831 277.844 306.106 261.192 278.276C249.728 259.775 226.261 253.17 203.919 248.717C189.08 245.781 173.28 243.51 157.898 239.666C149.153 237.496 140.443 234.803 131.92 231.22C125.497 228.521 119.039 225.321 112.796 221.722C108.381 219.183 103.914 216.359 99.4732 213.262Z" fill="#FEFFE4" style="mix-blend-mode:soft-light"/>
</g>
<g filter="url(#filter3_f_10_60)">
<path d="M509 76.6942C509 236.688 502.226 101.958 378.321 101.958C465.335 -112.803 165.013 267.938 88.0553 76.6942C11.0978 -114.549 160.745 -213 284.65 -213C408.555 -213 509 -83.2995 509 76.6942Z" fill="#BFFF57"/>
</g>
<g filter="url(#filter4_f_10_60)">
<path d="M424 239.529C424 291.571 421.634 247.747 378.361 247.747C408.75 177.89 301.231 277.265 274.354 215.058C247.477 152.851 290.339 179.813 333.612 179.813C376.885 179.813 424 187.487 424 239.529Z" fill="#BFFF57"/>
</g>
</g>
<defs>
<filter id="filter0_f_10_60" x="-213.767" y="-70.5703" width="611.413" height="523.899" filterUnits="userSpaceOnUse" color-interpolation-filters="sRGB">
<feFlood flood-opacity="0" result="BackgroundImageFix"/>
<feBlend mode="normal" in="SourceGraphic" in2="BackgroundImageFix" result="shape"/>
<feGaussianBlur stdDeviation="40" result="effect1_foregroundBlur_10_60"/>
</filter>
<filter id="filter1_f_10_60" x="-129" y="-273" width="687" height="699" filterUnits="userSpaceOnUse" color-interpolation-filters="sRGB">
<feFlood flood-opacity="0" result="BackgroundImageFix"/>
<feBlend mode="normal" in="SourceGraphic" in2="BackgroundImageFix" result="shape"/>
<feGaussianBlur stdDeviation="30" result="effect1_foregroundBlur_10_60"/>
</filter>
<filter id="filter2_f_10_60" x="-36.4428" y="-182.596" width="529.443" height="591.98" filterUnits="userSpaceOnUse" color-interpolation-filters="sRGB">
<feFlood flood-opacity="0" result="BackgroundImageFix"/>
<feBlend mode="normal" in="SourceGraphic" in2="BackgroundImageFix" result="shape"/>
<feGaussianBlur stdDeviation="15" result="effect1_foregroundBlur_10_60"/>
</filter>
<filter id="filter3_f_10_60" x="-33" y="-313" width="642" height="568" filterUnits="userSpaceOnUse" color-interpolation-filters="sRGB">
<feFlood flood-opacity="0" result="BackgroundImageFix"/>
<feBlend mode="normal" in="SourceGraphic" in2="BackgroundImageFix" result="shape"/>
<feGaussianBlur stdDeviation="50" result="effect1_foregroundBlur_10_60"/>
</filter>
<filter id="filter4_f_10_60" x="196" y="104" width="298" height="231" filterUnits="userSpaceOnUse" color-interpolation-filters="sRGB">
<feFlood flood-opacity="0" result="BackgroundImageFix"/>
<feBlend mode="normal" in="SourceGraphic" in2="BackgroundImageFix" result="shape"/>
<feGaussianBlur stdDeviation="35" result="effect1_foregroundBlur_10_60"/>
</filter>
<clipPath id="clip0_10_60">
<rect width="303" height="303" fill="white"/>
</clipPath>
</defs>
</svg>
