<svg width="303" height="303" viewBox="0 0 303 303" fill="none" xmlns="http://www.w3.org/2000/svg">
<g clip-path="url(#clip0_1_5)">
<rect width="303" height="303" fill="#FFC6E4"/>
<rect width="303" height="303" fill="#FFB5DC"/>
<g filter="url(#filter0_f_1_5)">
<path d="M476 269.382C476 395.947 428.1 520.891 313.973 520.891C199.846 520.891 62.7096 395.947 62.7096 269.382C62.7096 142.817 155.228 0 269.355 0C383.482 0 476 142.817 476 269.382Z" fill="#F472B6"/>
<path d="M352.131 196.611C352.131 323.176 250.061 556 135.934 556C21.8065 556 -85 373.605 -85 247.04C-85 120.475 10.4909 235.55 124.618 235.55C238.745 235.55 352.131 70.0456 352.131 196.611Z" fill="#F472B6"/>
</g>
<g filter="url(#filter1_f_1_5)">
<path d="M476 269.382C476 395.947 428.1 520.891 313.973 520.891C199.846 520.891 62.7096 395.947 62.7096 269.382C62.7096 142.817 155.228 0 269.355 0C383.482 0 476 142.817 476 269.382Z" fill="#F472B6"/>
<path d="M352.131 196.611C352.131 323.176 250.061 556 135.934 556C21.8065 556 -85 373.605 -85 247.04C-85 120.475 10.4909 235.55 124.618 235.55C238.745 235.55 352.131 70.0456 352.131 196.611Z" fill="#F472B6"/>
</g>
<g filter="url(#filter2_f_1_5)">
<path d="M351.987 332.408C351.987 445.401 268.267 537 164.994 537C61.7199 537 -22 445.401 -22 332.408C-22 219.414 148.826 87 252.099 87C355.373 87 351.987 219.414 351.987 332.408Z" fill="#C084FC"/>
</g>
<g filter="url(#filter3_f_1_5)">
<path d="M393 372C393 454.567 324.5 521.5 240 521.5C155.5 521.5 87 454.567 87 372C87 289.433 100.5 152 185 152C269.5 152 393 289.433 393 372Z" fill="#7DD3FC"/>
</g>
</g>
<defs>
<filter id="filter0_f_1_5" x="-135" y="-50" width="661" height="656" filterUnits="userSpaceOnUse" color-interpolation-filters="sRGB">
<feFlood flood-opacity="0" result="BackgroundImageFix"/>
<feBlend mode="normal" in="SourceGraphic" in2="BackgroundImageFix" result="shape"/>
<feGaussianBlur stdDeviation="25" result="effect1_foregroundBlur_1_5"/>
</filter>
<filter id="filter1_f_1_5" x="-185" y="-100" width="761" height="756" filterUnits="userSpaceOnUse" color-interpolation-filters="sRGB">
<feFlood flood-opacity="0" result="BackgroundImageFix"/>
<feBlend mode="normal" in="SourceGraphic" in2="BackgroundImageFix" result="shape"/>
<feGaussianBlur stdDeviation="50" result="effect1_foregroundBlur_1_5"/>
</filter>
<filter id="filter2_f_1_5" x="-122" y="-13" width="574" height="650" filterUnits="userSpaceOnUse" color-interpolation-filters="sRGB">
<feFlood flood-opacity="0" result="BackgroundImageFix"/>
<feBlend mode="normal" in="SourceGraphic" in2="BackgroundImageFix" result="shape"/>
<feGaussianBlur stdDeviation="50" result="effect1_foregroundBlur_1_5"/>
</filter>
<filter id="filter3_f_1_5" x="-13" y="52" width="506" height="569.5" filterUnits="userSpaceOnUse" color-interpolation-filters="sRGB">
<feFlood flood-opacity="0" result="BackgroundImageFix"/>
<feBlend mode="normal" in="SourceGraphic" in2="BackgroundImageFix" result="shape"/>
<feGaussianBlur stdDeviation="50" result="effect1_foregroundBlur_1_5"/>
</filter>
<clipPath id="clip0_1_5">
<rect width="303" height="303" fill="white"/>
</clipPath>
</defs>
</svg>
