<svg width="303" height="303" viewBox="0 0 303 303" fill="none" xmlns="http://www.w3.org/2000/svg">
<g clip-path="url(#clip0_1_7)">
<rect width="303" height="303" fill="#FDBA74"/>
<g filter="url(#filter0_f_1_7)">
<path d="M399 156.761C399 264.588 306.47 352 192.328 352C78.1869 352 0 264.588 0 156.761C0 48.9331 78.1869 -56 192.328 -56C306.47 -56 399 48.9331 399 156.761Z" fill="#F9A8D4"/>
</g>
<g filter="url(#filter1_f_1_7)">
<ellipse cx="249.5" cy="173.5" rx="108.5" ry="173.5" fill="#F472B6"/>
</g>
<g filter="url(#filter2_f_1_7)">
<ellipse cx="298.5" cy="174.5" rx="201.5" ry="183.5" fill="#C4B5FD"/>
<path d="M298.5 1C405.164 1 490 79.5386 490 174.5C490 269.461 405.164 348 298.5 348C191.836 348 107 269.461 107 174.5C107 79.5386 191.836 1 298.5 1Z" stroke="#6942FF" stroke-width="20"/>
</g>
<g filter="url(#filter3_f_1_7)">
<ellipse cx="248" cy="186" rx="151" ry="172" fill="#CAB3FF"/>
</g>
<g filter="url(#filter4_f_1_7)">
<ellipse cx="331.5" cy="168.5" rx="179.5" ry="183.5" fill="#93C5FD"/>
</g>
</g>
<defs>
<filter id="filter0_f_1_7" x="-70" y="-126" width="539" height="548" filterUnits="userSpaceOnUse" color-interpolation-filters="sRGB">
<feFlood flood-opacity="0" result="BackgroundImageFix"/>
<feBlend mode="normal" in="SourceGraphic" in2="BackgroundImageFix" result="shape"/>
<feGaussianBlur stdDeviation="35" result="effect1_foregroundBlur_1_7"/>
</filter>
<filter id="filter1_f_1_7" x="91" y="-50" width="317" height="447" filterUnits="userSpaceOnUse" color-interpolation-filters="sRGB">
<feFlood flood-opacity="0" result="BackgroundImageFix"/>
<feBlend mode="normal" in="SourceGraphic" in2="BackgroundImageFix" result="shape"/>
<feGaussianBlur stdDeviation="25" result="effect1_foregroundBlur_1_7"/>
</filter>
<filter id="filter2_f_1_7" x="-3" y="-109" width="603" height="567" filterUnits="userSpaceOnUse" color-interpolation-filters="sRGB">
<feFlood flood-opacity="0" result="BackgroundImageFix"/>
<feBlend mode="normal" in="SourceGraphic" in2="BackgroundImageFix" result="shape"/>
<feGaussianBlur stdDeviation="50" result="effect1_foregroundBlur_1_7"/>
</filter>
<filter id="filter3_f_1_7" x="-73" y="-156" width="642" height="684" filterUnits="userSpaceOnUse" color-interpolation-filters="sRGB">
<feFlood flood-opacity="0" result="BackgroundImageFix"/>
<feBlend mode="normal" in="SourceGraphic" in2="BackgroundImageFix" result="shape"/>
<feGaussianBlur stdDeviation="85" result="effect1_foregroundBlur_1_7"/>
</filter>
<filter id="filter4_f_1_7" x="102" y="-65" width="459" height="467" filterUnits="userSpaceOnUse" color-interpolation-filters="sRGB">
<feFlood flood-opacity="0" result="BackgroundImageFix"/>
<feBlend mode="normal" in="SourceGraphic" in2="BackgroundImageFix" result="shape"/>
<feGaussianBlur stdDeviation="25" result="effect1_foregroundBlur_1_7"/>
</filter>
<clipPath id="clip0_1_7">
<rect width="303" height="303" fill="white"/>
</clipPath>
</defs>
</svg>
