<svg width="303" height="303" viewBox="0 0 303 303" fill="none" xmlns="http://www.w3.org/2000/svg">
<g clip-path="url(#clip0_1_9)">
<rect width="303" height="303" fill="#C5C2C2"/>
<g filter="url(#filter0_f_1_9)">
<path d="M293 182.564C293 243.193 218.159 268 151.57 268C84.981 268 31 218.851 31 158.222C31 97.5936 70.027 40 136.616 40C203.205 40 293 121.936 293 182.564Z" fill="#FBDB24"/>
</g>
<g filter="url(#filter1_f_1_9)">
<path d="M303 209.306C303 258.054 237.029 278 178.332 278C119.634 278 77 258.054 77 209.306C77 160.558 119.634 101 178.332 101C237.029 101 303 160.558 303 209.306Z" fill="#F97316"/>
</g>
<g filter="url(#filter2_f_1_9)">
<path d="M335 209.544C335 251.027 285.582 268 241.613 268C197.644 268 162 234.372 162 192.889C162 151.406 187.77 112 231.739 112C275.708 112 335 168.061 335 209.544Z" fill="#FF4723"/>
</g>
</g>
<defs>
<filter id="filter0_f_1_9" x="-29" y="-20" width="382" height="348" filterUnits="userSpaceOnUse" color-interpolation-filters="sRGB">
<feFlood flood-opacity="0" result="BackgroundImageFix"/>
<feBlend mode="normal" in="SourceGraphic" in2="BackgroundImageFix" result="shape"/>
<feGaussianBlur stdDeviation="30" result="effect1_foregroundBlur_1_9"/>
</filter>
<filter id="filter1_f_1_9" x="-23" y="1" width="426" height="377" filterUnits="userSpaceOnUse" color-interpolation-filters="sRGB">
<feFlood flood-opacity="0" result="BackgroundImageFix"/>
<feBlend mode="normal" in="SourceGraphic" in2="BackgroundImageFix" result="shape"/>
<feGaussianBlur stdDeviation="50" result="effect1_foregroundBlur_1_9"/>
</filter>
<filter id="filter2_f_1_9" x="92" y="42" width="313" height="296" filterUnits="userSpaceOnUse" color-interpolation-filters="sRGB">
<feFlood flood-opacity="0" result="BackgroundImageFix"/>
<feBlend mode="normal" in="SourceGraphic" in2="BackgroundImageFix" result="shape"/>
<feGaussianBlur stdDeviation="35" result="effect1_foregroundBlur_1_9"/>
</filter>
<clipPath id="clip0_1_9">
<rect width="303" height="303" fill="white"/>
</clipPath>
</defs>
</svg>
